<svg id="Group_22739" data-name="Group 22739" xmlns="http://www.w3.org/2000/svg" xmlns:xlink="http://www.w3.org/1999/xlink" width="42.67" height="41.707" viewBox="0 0 42.67 41.707">
  <defs>
    <clipPath id="clip-path">
      <rect id="Rectangle_8681" data-name="Rectangle 8681" width="42.67" height="41.706" fill="none"/>
    </clipPath>
  </defs>
  <g id="Group_22739-2" data-name="Group 22739" transform="translate(0 0)" clip-path="url(#clip-path)">
    <path id="Path_15613" data-name="Path 15613" d="M6.5,49.082H30.134a1.374,1.374,0,0,0,1.34-1.039,1.383,1.383,0,0,0,1.347,1.039h5.766a1.4,1.4,0,1,0,0-2.792H32.822a1.383,1.383,0,0,0-1.347,1.039,1.374,1.374,0,0,0-1.34-1.039H6.5a1.4,1.4,0,1,0,0,2.792" transform="translate(-1.261 -11.448)" fill="#023fac"/>
    <path id="Path_15614" data-name="Path 15614" d="M12.832,24.234a7.473,7.473,0,0,0,1.242.105,8.46,8.46,0,0,0,8.28-7.851l.015-.241a8.418,8.418,0,0,0-8.219-8.5h-.294a8.291,8.291,0,0,0-1.024,16.484M14.081,19.7a5.642,5.642,0,0,1,3.38,1.122,4.92,4.92,0,0,1-3.312,1.167,5.836,5.836,0,0,1-3.5-1.144A5.735,5.735,0,0,1,14.081,19.7m-.978-6.33a1.349,1.349,0,0,1,.963-.4h.03a1.295,1.295,0,0,1-.03,2.589,1.325,1.325,0,0,1-1.325-1.265,1.283,1.283,0,0,1,.361-.926m4.614.662a3.281,3.281,0,0,0-1.106-2.394A3.62,3.62,0,0,0,14.074,10.6a3.683,3.683,0,0,0-2.777,1.28,3.405,3.405,0,0,0-.888,2.537,4.579,4.579,0,0,0,1.806,3.033L8.956,18.958a5.76,5.76,0,0,1,1.024-7.233,5.955,5.955,0,0,1,7.881-.248,5.843,5.843,0,0,1,1.325,7.489l-3.244-1.5a5.069,5.069,0,0,0,1.776-3.44" transform="translate(-1.436 -1.917)" fill="#43bdcf"/>
    <path id="Path_15615" data-name="Path 15615" d="M32.053,21.371a.957.957,0,0,0,.708.241h.008c2.634-.008,5.261-.015,7.9-.015h4.983c.1,0,.2-.008.294-.015l.557-.038V14.063H41.229c-2.815-.008-5.63-.008-8.46-.023a.968.968,0,0,0-.715.233.988.988,0,0,0-.233.708c.023,1.859.023,3.711,0,5.675a.956.956,0,0,0,.233.715m2.175-4.418v-.489h3.944c1.1,0,2.19,0,3.289-.008.361,0,.715-.015,1.076-.038.309-.015.625-.03.978-.03.2,0,.4.015.595.03V19.2H39.783c-1.852,0-3.7.008-5.562.008.015-.738.015-1.483.008-2.258" transform="translate(-7.869 -3.472)" fill="#43bdcf"/>
    <path id="Path_15616" data-name="Path 15616" d="M5.878,39.892H16.333l.068-.482a1.435,1.435,0,0,0,.023-.241V36.889c0-1.242,0-2.484.008-3.726a.824.824,0,0,0-.226-.61.907.907,0,0,0-.677-.233H6.668a.878.878,0,0,0-.632.226.883.883,0,0,0-.226.647v5.924a1.367,1.367,0,0,0,.023.241Zm2.311-2.363v-.023c.015-.745.015-1.49.008-2.251v-.437h5.788v2.7H10.913c-.9,0-1.791,0-2.7.008Z" transform="translate(-1.437 -7.993)" fill="#023fac"/>
    <path id="Path_15617" data-name="Path 15617" d="M31.988,39.892l.03-.572c.008-.105.015-.211.015-.309V37.355c0-1.37,0-2.74.008-4.1a.97.97,0,0,0-.233-.7.944.944,0,0,0-.692-.233H22.376a.84.84,0,0,0-.956.948c.015,1.024.008,2.04.008,3.063v3.56Zm-8.114-2.371V34.8h5.773v.384c0,.79,0,1.566-.008,2.326-1.355.008-2.717.008-4.08.008Z" transform="translate(-5.297 -7.993)" fill="#023fac"/>
    <path id="Path_15618" data-name="Path 15618" d="M36.852,39.348l.045.549H47.4V37.564c0-1.445,0-2.883.008-4.328a.955.955,0,0,0-.226-.7.929.929,0,0,0-.692-.226c-1.468,0-2.943.008-4.411.008-1.438,0-2.883-.008-4.328-.008a.944.944,0,0,0-.692.233.924.924,0,0,0-.226.7c.008,1.355.008,2.7.008,4.057v1.746c0,.1.008.2.015.3m2.409-4.569h5.72V37.5h-5.72Z" transform="translate(-9.108 -7.991)" fill="#023fac"/>
    <path id="Path_15619" data-name="Path 15619" d="M38.319,0H4.351A4.353,4.353,0,0,0,0,4.351V37.356a4.353,4.353,0,0,0,4.351,4.351H38.319a4.353,4.353,0,0,0,4.351-4.351V4.351A4.353,4.353,0,0,0,38.319,0M2.792,4.351A1.561,1.561,0,0,1,4.351,2.792H38.319a1.561,1.561,0,0,1,1.558,1.558V37.356a1.561,1.561,0,0,1-1.558,1.558H4.351a1.561,1.561,0,0,1-1.558-1.558Z" transform="translate(0 0)" fill="#023fac"/>
    <path id="Path_15620" data-name="Path 15620" d="M41.32,11.612h5.766a1.4,1.4,0,1,0,0-2.792H41.32a1.4,1.4,0,1,0,0,2.792" transform="translate(-9.873 -2.181)" fill="#43bdcf"/>
  </g>
</svg>
