<svg xmlns="http://www.w3.org/2000/svg" xmlns:xlink="http://www.w3.org/1999/xlink" width="36.957" height="41.096" viewBox="0 0 36.957 41.096">
  <defs>
    <clipPath id="clip-path">
      <rect id="Rectangle_8682" data-name="Rectangle 8682" width="36.957" height="41.096" fill="none"/>
    </clipPath>
  </defs>
  <g id="Group_22741" data-name="Group 22741" transform="translate(0 0)">
    <g id="Group_22740" data-name="Group 22740" transform="translate(0 0)" clip-path="url(#clip-path)">
      <path id="Path_15621" data-name="Path 15621" d="M16.059,37.842l-.565.008a15.4,15.4,0,0,1-7.482-1.669A9.515,9.515,0,0,1,2.6,26.923a17.763,17.763,0,0,1,1.7-6.676c1.764-3.931,3.919-6.607,6.779-8.421a.73.73,0,0,1,.348-.1c.822-.009,1.644-.01,2.466-.01l2.766,0c.18,0,.359,0,.536-.022a1.251,1.251,0,0,0,1.152-1.032,3.534,3.534,0,0,0,1.188,1.145A17.39,17.39,0,0,1,24.549,16.9c.189.293.359.6.529.9.135.241.27.483.414.719a1.282,1.282,0,0,0,2.29-1.138,2.445,2.445,0,0,0-.153-.307A20.016,20.016,0,0,0,21.1,9.756a2.358,2.358,0,0,1-.551-.442,2.94,2.94,0,0,1,.311-.705C21.729,7,22.466,5.559,23.114,4.2a7.364,7.364,0,0,0,.551-1.908A1.98,1.98,0,0,0,23.276.649,1.852,1.852,0,0,0,21.828.02c-.07,0-.142,0-.216.009a17.912,17.912,0,0,0-3,.442,12.976,12.976,0,0,1-3.343.465,10.394,10.394,0,0,1-3.12-.472A10.7,10.7,0,0,0,9.911.105C9.623.079,9.336.053,9.051.018A2.414,2.414,0,0,0,8.753,0,1.959,1.959,0,0,0,7.206.707a2.241,2.241,0,0,0-.42,1.872,6.616,6.616,0,0,0,.538,1.772c.767,1.492,1.551,2.9,2.5,4.586.238.425.23.459-.175.745l-.3.215A17.26,17.26,0,0,0,7.5,11.314,23.92,23.92,0,0,0,.579,23.258c-.178.681-.3,1.376-.41,2.049-.051.306-.1.612-.16.916L0,26.273v2.363l.033.09.043.087a12.007,12.007,0,0,0,5.667,8.979,17.085,17.085,0,0,0,8.974,2.628c.2.008.408.013.613.013.259,0,.517-.007.775-.02a1.422,1.422,0,0,0,1-.454,1.24,1.24,0,0,0,.315-.905,1.293,1.293,0,0,0-1.361-1.211M12.59,7.36a1.185,1.185,0,0,0-.318.724c-.075-.15-.17-.319-.292-.533l-.107-.188c-.727-1.282-1.477-2.68-2.3-4.277a2.4,2.4,0,0,1-.17-.5l.248.031a10.919,10.919,0,0,1,1.817.336,12.892,12.892,0,0,0,3.8.576,14.671,14.671,0,0,0,3.865-.543,15.759,15.759,0,0,1,1.735-.333l.08-.012,0,.007c-.316.665-.639,1.326-.962,1.988-.358.73-.715,1.461-1.062,2.2-.051.108-.053.112-.242.112h-.009q-1.216-.013-2.432-.011l-2.558,0a1.445,1.445,0,0,0-1.1.419m.044,1.775h-.09c0-.038-.007-.075-.01-.11a.948.948,0,0,0,.1.11" transform="translate(0 0)" fill="#023fac"/>
      <path id="Path_15622" data-name="Path 15622" d="M31.173,26.207a10.1,10.1,0,0,0-4.881,1.26,1.569,1.569,0,0,0-.825.919,1.146,1.146,0,0,0-.019.556,1.187,1.187,0,0,0-.529-.123,1.452,1.452,0,0,0-1.047.484,9.993,9.993,0,0,0-2.787,8.751A10.179,10.179,0,0,0,31.265,46.7c.274,0,.551-.011.83-.031a10.249,10.249,0,0,0-.921-20.458m-5.028,3.651a1.193,1.193,0,0,0,.517.114,1.8,1.8,0,0,0,.837-.235,7.746,7.746,0,0,1,3.722-.944,8.563,8.563,0,0,1,.944.053,7.593,7.593,0,0,1,5.211,3.069,7.5,7.5,0,0,1,1.4,5.811,7.677,7.677,0,0,1-7.584,6.4,8.468,8.468,0,0,1-1.381-.115,7.708,7.708,0,0,1-6.2-8.73A7.715,7.715,0,0,1,25.7,31.111a1.347,1.347,0,0,0,.443-1.253" transform="translate(-4.478 -5.6)" fill="#43bdcf"/>
      <path id="Path_15623" data-name="Path 15623" d="M32.687,32.61a.244.244,0,0,1,.154-.034l1.645.017.068,1.08a.308.308,0,0,0,.053.186c.2.235.891.216,1.181.326a1.081,1.081,0,0,1,.774,1.411,4.046,4.046,0,0,1-.194.526,5.952,5.952,0,0,0-2.14-.679c-.41-.049-1.832-.115-1.856.543-.02.586,1,.948,1.434,1.061a9.373,9.373,0,0,1,1.688.452,2.608,2.608,0,0,1,1.36,2.993A2.5,2.5,0,0,1,34.9,42.216c-.1.024-.193.053-.333.092-.022.355-.044.708-.068,1.106H32.665c-.022-.384-.043-.733-.062-1.066-1.935-.543-1.935-.543-1.769-2.256a8.223,8.223,0,0,0,3.044.508,1,1,0,0,0,.426-.116.563.563,0,0,0,.249-.576c-.122-.605-1.465-.89-1.956-1.11-1.222-.549-2.368-1.617-1.9-3.089a2.212,2.212,0,0,1,.795-1.093c.366-.269.9-.38,1.095-.837a3.03,3.03,0,0,0,.046-1.036.193.193,0,0,1,.051-.134" transform="translate(-6.538 -6.961)" fill="#43bdcf"/>
    </g>
  </g>
</svg>
