<svg id="Group_23407" data-name="Group 23407" xmlns="http://www.w3.org/2000/svg" width="46.975" height="48" viewBox="0 0 46.975 48">
  <path id="Ellipse_4" data-name="Ellipse 4" d="M0,24A23.748,23.748,0,0,1,23.487,0,23.748,23.748,0,0,1,46.975,24,23.748,23.748,0,0,1,23.487,48,23.748,23.748,0,0,1,0,24Z" fill="#f9a725" opacity="0.34" style="mix-blend-mode: normal;isolation: isolate"/>
  <path id="Ellipse_5" data-name="Ellipse 5" d="M0,16A15.832,15.832,0,0,1,15.658,0,15.832,15.832,0,0,1,31.317,16,15.832,15.832,0,0,1,15.658,32,15.832,15.832,0,0,1,0,16Z" transform="translate(7.829 8)" fill="#f9a725" style="mix-blend-mode: normal;isolation: isolate"/>
  <path id="Polygon_1" data-name="Polygon 1" d="M1.072,11.744H14.928L8,0Z" transform="matrix(0, 1, -1, 0, 31.316, 16)" fill="#fff" style="mix-blend-mode: normal;isolation: isolate"/>
</svg>
