<svg xmlns="http://www.w3.org/2000/svg" xmlns:xlink="http://www.w3.org/1999/xlink" width="38.763" height="41.466" viewBox="0 0 38.763 41.466">
  <defs>
    <clipPath id="clip-path">
      <rect id="Rectangle_8680" data-name="Rectangle 8680" width="38.763" height="41.466" fill="#023fac"/>
    </clipPath>
  </defs>
  <g id="Group_22738" data-name="Group 22738" transform="translate(0 0)">
    <g id="Group_22737" data-name="Group 22737" transform="translate(0 0)" clip-path="url(#clip-path)">
      <path id="Path_15606" data-name="Path 15606" d="M13.079,38.636a3.2,3.2,0,0,0-.6-.042H2.854V2.889H30.007v9.5c0,.148,0,.3.011.445a1.387,1.387,0,0,0,1.4,1.345,1.61,1.61,0,0,0,.277-.024,1.407,1.407,0,0,0,1.143-1.52V1.73c0-1.208-.519-1.724-1.736-1.724H20.13Q10.936.007,1.738,0A1.661,1.661,0,0,0,.024,1.058L0,1.122V40.338l.025.064A1.792,1.792,0,0,0,1.05,41.436l.07.03H13.138s.237-.129.28-.149a1.407,1.407,0,0,0,.82-1.485,1.381,1.381,0,0,0-1.159-1.2" transform="translate(0 0)" fill="#023fac"/>
      <path id="Path_15607" data-name="Path 15607" d="M35.521,43.509q-1.247-.006-2.494,0H29.764c-.034,0-.069,0-.1,0V32.074H41.669c0,.029,0,3.228,0,3.228,0,.114,0,.228.008.343A1.4,1.4,0,0,0,43.132,37h0a1.4,1.4,0,0,0,1.382-1.441c.007-1.361.005-2.723,0-4.085v-.647A1.436,1.436,0,0,0,42.9,29.232H28.427a1.44,1.44,0,0,0-1.62,1.629q0,6.929,0,13.858a1.45,1.45,0,0,0,1.664,1.633l6.163,0q.478,0,.956-.006a1.407,1.407,0,0,0,1.434-1.055,1.373,1.373,0,0,0-.217-1.212,1.577,1.577,0,0,0-1.287-.573" transform="translate(-6.744 -7.354)" fill="#43bdcf"/>
      <path id="Path_15608" data-name="Path 15608" d="M48.077,46.1l-.127-.15c-.344-.4-.7-.8-1.063-1.182-.1-.1-.112-.112-.045-.277a4.111,4.111,0,0,0-3.75-5.7,3.886,3.886,0,0,0-1.572.322,3.97,3.97,0,0,0-2.537,3.5,4.318,4.318,0,0,0,1.2,3.143,4.087,4.087,0,0,0,2.9,1.227,4.18,4.18,0,0,0,1.557-.307c.06-.022.1-.03.1-.037a.3.3,0,0,1,.06.067c.269.322.554.636.838.95l.322.352a1.668,1.668,0,0,0,1.227.621,1.337,1.337,0,0,0,.913-.367,1.443,1.443,0,0,0-.022-2.155M43.1,44.512a1.628,1.628,0,0,1-1.654-1.594,1.648,1.648,0,0,1,1.624-1.654h.015a1.624,1.624,0,0,1,.015,3.248" transform="translate(-9.808 -9.758)" fill="#43bdcf"/>
      <path id="Path_15609" data-name="Path 15609" d="M24.943,21.246a1.4,1.4,0,0,0,.98-.654,1.424,1.424,0,0,0,.115-1.191,1.446,1.446,0,0,0-1.561-.965H9.271a1.867,1.867,0,0,0-1.365.469,1.332,1.332,0,0,0-.369.98c.013.875.659,1.4,1.73,1.4H24.349a3.662,3.662,0,0,0,.594-.034" transform="translate(-1.896 -4.638)" fill="#023fac"/>
      <path id="Path_15610" data-name="Path 15610" d="M17.852,28.065H9.382a1.871,1.871,0,0,0-1.365.468,1.333,1.333,0,0,0-.369.981c.014.874.66,1.4,1.73,1.4h8.36a3.571,3.571,0,0,0,.58-.034,1.4,1.4,0,0,0,.981-.655,1.422,1.422,0,0,0,.115-1.191,1.445,1.445,0,0,0-1.561-.965" transform="translate(-1.924 -7.061)" fill="#023fac"/>
      <path id="Path_15611" data-name="Path 15611" d="M24.62,9.634q-1.725,0-3.451,0H9.291c-1.1,0-1.753.528-1.756,1.411A1.311,1.311,0,0,0,7.9,12a1.882,1.882,0,0,0,1.384.465H24.522a2.808,2.808,0,0,0,.346-.017,1.358,1.358,0,0,0,1.162-.909,1.386,1.386,0,0,0-.145-1.287,1.509,1.509,0,0,0-1.265-.615" transform="translate(-1.896 -2.423)" fill="#023fac"/>
      <path id="Path_15612" data-name="Path 15612" d="M34.341,35.529a1.017,1.017,0,0,0-1.048,1.078,1.051,1.051,0,0,0,1.138,1h5.456a1.032,1.032,0,0,0,1.138-.98.975.975,0,0,0-1.018-1.093c-1.886-.03-3.779-.03-5.665,0" transform="translate(-8.376 -8.933)" fill="#43bdcf"/>
    </g>
  </g>
</svg>
