<svg xmlns="http://www.w3.org/2000/svg" xmlns:xlink="http://www.w3.org/1999/xlink" width="45" height="45" viewBox="0 0 53.13 53.236">
  <defs>
    <clipPath id="clip-path">
      <rect id="Rectangle_8673" data-name="Rectangle 8673" width="53.13" height="53.236" fill="#fff"/>
    </clipPath>
  </defs>
  <g id="Group_22728" data-name="Group 22728" transform="translate(-385.708 -900.003)">
    <g id="Group_22726" data-name="Group 22726" transform="translate(385.708 900.003)">
      <g id="Group_22725" data-name="Group 22725" clip-path="url(#clip-path)">
        <path id="Path_15556" data-name="Path 15556" d="M59.35,4.3A13.772,13.772,0,0,0,49.557,0H49.55c-.157,0-.328,0-.492.007C41.9.292,35.979,5.859,35.58,12.673a13.985,13.985,0,0,0,11.768,15,12.445,12.445,0,0,0,2.067.171,14.2,14.2,0,0,0,13.9-13.172l.021-.421A13.769,13.769,0,0,0,59.35,4.3M56.164,22.865A9.477,9.477,0,0,1,49.557,25.3a11.214,11.214,0,0,1-6.928-2.345l-.649-.506.641-.5a11,11,0,0,1,6.814-2.366A10.775,10.775,0,0,1,56.121,21.9l.577.456Zm-6.757-8.981a3.182,3.182,0,0,1-3.179-3.058A3.1,3.1,0,0,1,47.1,8.582a3.194,3.194,0,0,1,2.3-.962h.064a3.133,3.133,0,0,1-.064,6.265M59.115,19.7l-.3.47L51.3,16.7l.67-.656c2.024-1.939,3.093-3.913,3.1-5.7a5.027,5.027,0,0,0-1.725-3.664,5.612,5.612,0,0,0-3.927-1.611,5.716,5.716,0,0,0-4.312,2,5.228,5.228,0,0,0-1.383,3.892,7.585,7.585,0,0,0,3.136,5.025l.8.649-7.612,3.5-.306-.413C36.8,15.688,37.625,9.373,41.574,5.638A11.375,11.375,0,0,1,49.393,2.53,11.5,11.5,0,0,1,56.67,5.153,11.223,11.223,0,0,1,59.115,19.7" transform="translate(-10.212)" fill="#fff"/>
        <path id="Path_15557" data-name="Path 15557" d="M59.35,4.3A13.772,13.772,0,0,0,49.557,0H49.55c-.157,0-.328,0-.492.007C41.9.292,35.979,5.859,35.58,12.673a13.985,13.985,0,0,0,11.768,15,12.445,12.445,0,0,0,2.067.171,14.2,14.2,0,0,0,13.9-13.172l.021-.421A13.769,13.769,0,0,0,59.35,4.3M56.164,22.865A9.477,9.477,0,0,1,49.557,25.3a11.214,11.214,0,0,1-6.928-2.345l-.649-.506.641-.5a11,11,0,0,1,6.814-2.366A10.775,10.775,0,0,1,56.121,21.9l.577.456Zm-6.757-8.981a3.182,3.182,0,0,1-3.179-3.058A3.1,3.1,0,0,1,47.1,8.582a3.194,3.194,0,0,1,2.3-.962h.064a3.133,3.133,0,0,1-.064,6.265M59.115,19.7l-.3.47L51.3,16.7l.67-.656c2.024-1.939,3.093-3.913,3.1-5.7a5.027,5.027,0,0,0-1.725-3.664,5.612,5.612,0,0,0-3.927-1.611,5.716,5.716,0,0,0-4.312,2,5.228,5.228,0,0,0-1.383,3.892,7.585,7.585,0,0,0,3.136,5.025l.8.649-7.612,3.5-.306-.413C36.8,15.688,37.625,9.373,41.574,5.638A11.375,11.375,0,0,1,49.393,2.53,11.5,11.5,0,0,1,56.67,5.153,11.223,11.223,0,0,1,59.115,19.7" transform="translate(-10.212)" fill="#fff"/>
        <path id="Path_15558" data-name="Path 15558" d="M59.35,4.3A13.772,13.772,0,0,0,49.557,0H49.55c-.157,0-.328,0-.492.007C41.9.292,35.979,5.859,35.58,12.673a13.985,13.985,0,0,0,11.768,15,12.445,12.445,0,0,0,2.067.171,14.2,14.2,0,0,0,13.9-13.172l.021-.421A13.769,13.769,0,0,0,59.35,4.3M56.164,22.865A9.477,9.477,0,0,1,49.557,25.3a11.214,11.214,0,0,1-6.928-2.345l-.649-.506.641-.5a11,11,0,0,1,6.814-2.366A10.775,10.775,0,0,1,56.121,21.9l.577.456Zm-6.757-8.981a3.182,3.182,0,0,1-3.179-3.058A3.1,3.1,0,0,1,47.1,8.582a3.194,3.194,0,0,1,2.3-.962h.064a3.133,3.133,0,0,1-.064,6.265M59.115,19.7l-.3.47L51.3,16.7l.67-.656c2.024-1.939,3.093-3.913,3.1-5.7a5.027,5.027,0,0,0-1.725-3.664,5.612,5.612,0,0,0-3.927-1.611,5.716,5.716,0,0,0-4.312,2,5.228,5.228,0,0,0-1.383,3.892,7.585,7.585,0,0,0,3.136,5.025l.8.649-7.612,3.5-.306-.413C36.8,15.688,37.625,9.373,41.574,5.638A11.375,11.375,0,0,1,49.393,2.53,11.5,11.5,0,0,1,56.67,5.153,11.223,11.223,0,0,1,59.115,19.7" transform="translate(-10.212)" fill="#fff"/>
        <path id="Path_15559" data-name="Path 15559" d="M59.35,4.3A13.772,13.772,0,0,0,49.557,0H49.55c-.157,0-.328,0-.492.007C41.9.292,35.979,5.859,35.58,12.673a13.985,13.985,0,0,0,11.768,15,12.445,12.445,0,0,0,2.067.171,14.2,14.2,0,0,0,13.9-13.172l.021-.421A13.769,13.769,0,0,0,59.35,4.3M56.164,22.865A9.477,9.477,0,0,1,49.557,25.3a11.214,11.214,0,0,1-6.928-2.345l-.649-.506.641-.5a11,11,0,0,1,6.814-2.366A10.775,10.775,0,0,1,56.121,21.9l.577.456Zm-6.757-8.981a3.182,3.182,0,0,1-3.179-3.058A3.1,3.1,0,0,1,47.1,8.582a3.194,3.194,0,0,1,2.3-.962h.064a3.133,3.133,0,0,1-.064,6.265M59.115,19.7l-.3.47L51.3,16.7l.67-.656c2.024-1.939,3.093-3.913,3.1-5.7a5.027,5.027,0,0,0-1.725-3.664,5.612,5.612,0,0,0-3.927-1.611,5.716,5.716,0,0,0-4.312,2,5.228,5.228,0,0,0-1.383,3.892,7.585,7.585,0,0,0,3.136,5.025l.8.649-7.612,3.5-.306-.413C36.8,15.688,37.625,9.373,41.574,5.638A11.375,11.375,0,0,1,49.393,2.53,11.5,11.5,0,0,1,56.67,5.153,11.223,11.223,0,0,1,59.115,19.7" transform="translate(-10.212)" fill="#fff"/>
        <path id="Path_15560" data-name="Path 15560" d="M29.559,48.161c-1.483-1.511-2.965-2.972-4.5-4.5-.641-.634-1.076-.919-1.411-.919s-.756.278-1.383.891l-2.359,2.359-2.267,2.274q-1.112,1.112-2.231,2.224a3.474,3.474,0,0,1-2.359,1.155,2.343,2.343,0,0,1-1.711-.77c-1.062-1.133-.891-2.566.47-3.942q1.486-1.486,2.979-2.972c1.361-1.361,2.73-2.73,4.084-4.105.934-.948.934-1.411.007-2.366-1.3-1.347-2.794-2.844-4.7-4.7a2.011,2.011,0,0,0-1.254-.727,1.961,1.961,0,0,0-1.226.713l-1.483,1.468c-2.181,2.16-4.654,4.6-6.964,6.992a11.339,11.339,0,0,0-.064,15.845c2.88,3.158,5.788,4.861,9.109,5.367h1.454a13.4,13.4,0,0,0,7.427-3.428q2.277-2.32,4.583-4.6,1.882-1.882,3.756-3.77c.984-.991.984-1.5.036-2.48M12.994,35.31l3.45,3.329-3.507,3.428L9.395,38.7Zm8.2,20.043c-2.381,3.008-4.9,4.469-7.7,4.469a8.934,8.934,0,0,1-1.618-.15,11.515,11.515,0,0,1-8.917-8.09c-1.7-5.025,1.575-8.453,4.184-10.6l.456-.378,3.464,3.564-.5.442c-1.4,1.254-2.78,2.815-2.359,4.925a6.846,6.846,0,0,0,1.682,3.336,4.023,4.023,0,0,0,2.937,1.368c1.483,0,3.179-.862,5.053-2.559l.492-.442,3.15,3.692Zm2.445-2.331-3.421-3.735L23.9,46.173l3.051,3.272Z" transform="translate(0 -9.209)" fill="#fff"/>
        <path id="Path_15561" data-name="Path 15561" d="M29.559,48.161c-1.483-1.511-2.965-2.972-4.5-4.5-.641-.634-1.076-.919-1.411-.919s-.756.278-1.383.891l-2.359,2.359-2.267,2.274q-1.112,1.112-2.231,2.224a3.474,3.474,0,0,1-2.359,1.155,2.343,2.343,0,0,1-1.711-.77c-1.062-1.133-.891-2.566.47-3.942q1.486-1.486,2.979-2.972c1.361-1.361,2.73-2.73,4.084-4.105.934-.948.934-1.411.007-2.366-1.3-1.347-2.794-2.844-4.7-4.7a2.011,2.011,0,0,0-1.254-.727,1.961,1.961,0,0,0-1.226.713l-1.483,1.468c-2.181,2.16-4.654,4.6-6.964,6.992a11.339,11.339,0,0,0-.064,15.845c2.88,3.158,5.788,4.861,9.109,5.367h1.454a13.4,13.4,0,0,0,7.427-3.428q2.277-2.32,4.583-4.6,1.882-1.882,3.756-3.77c.984-.991.984-1.5.036-2.48M12.994,35.31l3.45,3.329-3.507,3.428L9.395,38.7Zm8.2,20.043c-2.381,3.008-4.9,4.469-7.7,4.469a8.934,8.934,0,0,1-1.618-.15,11.515,11.515,0,0,1-8.917-8.09c-1.7-5.025,1.575-8.453,4.184-10.6l.456-.378,3.464,3.564-.5.442c-1.4,1.254-2.78,2.815-2.359,4.925a6.846,6.846,0,0,0,1.682,3.336,4.023,4.023,0,0,0,2.937,1.368c1.483,0,3.179-.862,5.053-2.559l.492-.442,3.15,3.692Zm2.445-2.331-3.421-3.735L23.9,46.173l3.051,3.272Z" transform="translate(0 -9.209)" fill="#fff"/>
        <path id="Path_15562" data-name="Path 15562" d="M29.559,48.161c-1.483-1.511-2.965-2.972-4.5-4.5-.641-.634-1.076-.919-1.411-.919s-.756.278-1.383.891l-2.359,2.359-2.267,2.274q-1.112,1.112-2.231,2.224a3.474,3.474,0,0,1-2.359,1.155,2.343,2.343,0,0,1-1.711-.77c-1.062-1.133-.891-2.566.47-3.942q1.486-1.486,2.979-2.972c1.361-1.361,2.73-2.73,4.084-4.105.934-.948.934-1.411.007-2.366-1.3-1.347-2.794-2.844-4.7-4.7a2.011,2.011,0,0,0-1.254-.727,1.961,1.961,0,0,0-1.226.713l-1.483,1.468c-2.181,2.16-4.654,4.6-6.964,6.992a11.339,11.339,0,0,0-.064,15.845c2.88,3.158,5.788,4.861,9.109,5.367h1.454a13.4,13.4,0,0,0,7.427-3.428q2.277-2.32,4.583-4.6,1.882-1.882,3.756-3.77c.984-.991.984-1.5.036-2.48M12.994,35.31l3.45,3.329-3.507,3.428L9.395,38.7Zm8.2,20.043c-2.381,3.008-4.9,4.469-7.7,4.469a8.934,8.934,0,0,1-1.618-.15,11.515,11.515,0,0,1-8.917-8.09c-1.7-5.025,1.575-8.453,4.184-10.6l.456-.378,3.464,3.564-.5.442c-1.4,1.254-2.78,2.815-2.359,4.925a6.846,6.846,0,0,0,1.682,3.336,4.023,4.023,0,0,0,2.937,1.368c1.483,0,3.179-.862,5.053-2.559l.492-.442,3.15,3.692Zm2.445-2.331-3.421-3.735L23.9,46.173l3.051,3.272Z" transform="translate(0 -9.209)" fill="#fff"/>
        <path id="Path_15563" data-name="Path 15563" d="M29.559,48.161c-1.483-1.511-2.965-2.972-4.5-4.5-.641-.634-1.076-.919-1.411-.919s-.756.278-1.383.891l-2.359,2.359-2.267,2.274q-1.112,1.112-2.231,2.224a3.474,3.474,0,0,1-2.359,1.155,2.343,2.343,0,0,1-1.711-.77c-1.062-1.133-.891-2.566.47-3.942q1.486-1.486,2.979-2.972c1.361-1.361,2.73-2.73,4.084-4.105.934-.948.934-1.411.007-2.366-1.3-1.347-2.794-2.844-4.7-4.7a2.011,2.011,0,0,0-1.254-.727,1.961,1.961,0,0,0-1.226.713l-1.483,1.468c-2.181,2.16-4.654,4.6-6.964,6.992a11.339,11.339,0,0,0-.064,15.845c2.88,3.158,5.788,4.861,9.109,5.367h1.454a13.4,13.4,0,0,0,7.427-3.428q2.277-2.32,4.583-4.6,1.882-1.882,3.756-3.77c.984-.991.984-1.5.036-2.48M12.994,35.31l3.45,3.329-3.507,3.428L9.395,38.7Zm8.2,20.043c-2.381,3.008-4.9,4.469-7.7,4.469a8.934,8.934,0,0,1-1.618-.15,11.515,11.515,0,0,1-8.917-8.09c-1.7-5.025,1.575-8.453,4.184-10.6l.456-.378,3.464,3.564-.5.442c-1.4,1.254-2.78,2.815-2.359,4.925a6.846,6.846,0,0,0,1.682,3.336,4.023,4.023,0,0,0,2.937,1.368c1.483,0,3.179-.862,5.053-2.559l.492-.442,3.15,3.692Zm2.445-2.331-3.421-3.735L23.9,46.173l3.051,3.272Z" transform="translate(0 -9.209)" fill="#fff"/>
        <path id="Path_15564" data-name="Path 15564" d="M29.33,23.778a.527.527,0,0,1-.036.221,2.614,2.614,0,0,1-.634.848c-.556.592-1.126,1.169-1.689,1.739l-1.6,1.639a3.714,3.714,0,0,1-1.076.891.966.966,0,0,1-.385.086,1.261,1.261,0,0,1-.82-.378,1.359,1.359,0,0,1-.449-.727c-.086-.556.449-1.162.984-1.689l2.794-2.758a4.827,4.827,0,0,1,.884-.734,1.369,1.369,0,0,1,.656-.185,1.145,1.145,0,0,1,.606.178c.47.292.748.606.77.87" transform="translate(-6.5 -6.529)" fill="#fff"/>
        <path id="Path_15565" data-name="Path 15565" d="M29.33,23.778a.527.527,0,0,1-.036.221,2.614,2.614,0,0,1-.634.848c-.556.592-1.126,1.169-1.689,1.739l-1.6,1.639a3.714,3.714,0,0,1-1.076.891.966.966,0,0,1-.385.086,1.261,1.261,0,0,1-.82-.378,1.359,1.359,0,0,1-.449-.727c-.086-.556.449-1.162.984-1.689l2.794-2.758a4.827,4.827,0,0,1,.884-.734,1.369,1.369,0,0,1,.656-.185,1.145,1.145,0,0,1,.606.178c.47.292.748.606.77.87" transform="translate(-6.5 -6.529)" fill="#fff"/>
        <path id="Path_15566" data-name="Path 15566" d="M29.33,23.778a.527.527,0,0,1-.036.221,2.614,2.614,0,0,1-.634.848c-.556.592-1.126,1.169-1.689,1.739l-1.6,1.639a3.714,3.714,0,0,1-1.076.891.966.966,0,0,1-.385.086,1.261,1.261,0,0,1-.82-.378,1.359,1.359,0,0,1-.449-.727c-.086-.556.449-1.162.984-1.689l2.794-2.758a4.827,4.827,0,0,1,.884-.734,1.369,1.369,0,0,1,.656-.185,1.145,1.145,0,0,1,.606.178c.47.292.748.606.77.87" transform="translate(-6.5 -6.529)" fill="#fff"/>
        <path id="Path_15567" data-name="Path 15567" d="M29.33,23.778a.527.527,0,0,1-.036.221,2.614,2.614,0,0,1-.634.848c-.556.592-1.126,1.169-1.689,1.739l-1.6,1.639a3.714,3.714,0,0,1-1.076.891.966.966,0,0,1-.385.086,1.261,1.261,0,0,1-.82-.378,1.359,1.359,0,0,1-.449-.727c-.086-.556.449-1.162.984-1.689l2.794-2.758a4.827,4.827,0,0,1,.884-.734,1.369,1.369,0,0,1,.656-.185,1.145,1.145,0,0,1,.606.178c.47.292.748.606.77.87" transform="translate(-6.5 -6.529)" fill="#fff"/>
        <path id="Path_15568" data-name="Path 15568" d="M49.307,43.792a1.89,1.89,0,0,1-.392,1.183A8.689,8.689,0,0,1,47.6,46.322c-.2.164-.392.349-.592.535s-.392.385-.584.577A8.6,8.6,0,0,1,44.9,48.767a1.759,1.759,0,0,1-.877.242c-.492,0-.77-.207-.834-.606A3.19,3.19,0,0,1,44,46.151a13.134,13.134,0,0,1,1.219-1.233c.264-.242.52-.492.763-.741.057-.05.121-.114.185-.178l.114-.128c.549-.584,1.169-1.24,1.8-1.24H48.1a.863.863,0,0,1,.135.007,1.4,1.4,0,0,1,1.069,1.155" transform="translate(-12.4 -12.245)" fill="#fff"/>
        <path id="Path_15569" data-name="Path 15569" d="M49.307,43.792a1.89,1.89,0,0,1-.392,1.183A8.689,8.689,0,0,1,47.6,46.322c-.2.164-.392.349-.592.535s-.392.385-.584.577A8.6,8.6,0,0,1,44.9,48.767a1.759,1.759,0,0,1-.877.242c-.492,0-.77-.207-.834-.606A3.19,3.19,0,0,1,44,46.151a13.134,13.134,0,0,1,1.219-1.233c.264-.242.52-.492.763-.741.057-.05.121-.114.185-.178l.114-.128c.549-.584,1.169-1.24,1.8-1.24H48.1a.863.863,0,0,1,.135.007,1.4,1.4,0,0,1,1.069,1.155" transform="translate(-12.4 -12.245)" fill="#fff"/>
        <path id="Path_15570" data-name="Path 15570" d="M49.307,43.792a1.89,1.89,0,0,1-.392,1.183A8.689,8.689,0,0,1,47.6,46.322c-.2.164-.392.349-.592.535s-.392.385-.584.577A8.6,8.6,0,0,1,44.9,48.767a1.759,1.759,0,0,1-.877.242c-.492,0-.77-.207-.834-.606A3.19,3.19,0,0,1,44,46.151a13.134,13.134,0,0,1,1.219-1.233c.264-.242.52-.492.763-.741.057-.05.121-.114.185-.178l.114-.128c.549-.584,1.169-1.24,1.8-1.24H48.1a.863.863,0,0,1,.135.007,1.4,1.4,0,0,1,1.069,1.155" transform="translate(-12.4 -12.245)" fill="#fff"/>
        <path id="Path_15571" data-name="Path 15571" d="M49.307,43.792a1.89,1.89,0,0,1-.392,1.183A8.689,8.689,0,0,1,47.6,46.322c-.2.164-.392.349-.592.535s-.392.385-.584.577A8.6,8.6,0,0,1,44.9,48.767a1.759,1.759,0,0,1-.877.242c-.492,0-.77-.207-.834-.606A3.19,3.19,0,0,1,44,46.151a13.134,13.134,0,0,1,1.219-1.233c.264-.242.52-.492.763-.741.057-.05.121-.114.185-.178l.114-.128c.549-.584,1.169-1.24,1.8-1.24H48.1a.863.863,0,0,1,.135.007,1.4,1.4,0,0,1,1.069,1.155" transform="translate(-12.4 -12.245)" fill="#fff"/>
        <path id="Path_15572" data-name="Path 15572" d="M31.573,32.616a4.262,4.262,0,0,1-2.659,2.6h-.043a1.169,1.169,0,0,1-1.19-1.262,2.714,2.714,0,0,1,.848-1.44,3.557,3.557,0,0,1,1.81-1.176,1.256,1.256,0,0,1,.9.378,1.229,1.229,0,0,1,.335.9" transform="translate(-7.951 -9.002)" fill="#fff"/>
        <path id="Path_15573" data-name="Path 15573" d="M31.573,32.616a4.262,4.262,0,0,1-2.659,2.6h-.043a1.169,1.169,0,0,1-1.19-1.262,2.714,2.714,0,0,1,.848-1.44,3.557,3.557,0,0,1,1.81-1.176,1.256,1.256,0,0,1,.9.378,1.229,1.229,0,0,1,.335.9" transform="translate(-7.951 -9.002)" fill="#fff"/>
        <path id="Path_15574" data-name="Path 15574" d="M31.573,32.616a4.262,4.262,0,0,1-2.659,2.6h-.043a1.169,1.169,0,0,1-1.19-1.262,2.714,2.714,0,0,1,.848-1.44,3.557,3.557,0,0,1,1.81-1.176,1.256,1.256,0,0,1,.9.378,1.229,1.229,0,0,1,.335.9" transform="translate(-7.951 -9.002)" fill="#fff"/>
        <path id="Path_15575" data-name="Path 15575" d="M31.573,32.616a4.262,4.262,0,0,1-2.659,2.6h-.043a1.169,1.169,0,0,1-1.19-1.262,2.714,2.714,0,0,1,.848-1.44,3.557,3.557,0,0,1,1.81-1.176,1.256,1.256,0,0,1,.9.378,1.229,1.229,0,0,1,.335.9" transform="translate(-7.951 -9.002)" fill="#fff"/>
        <path id="Path_15576" data-name="Path 15576" d="M41.606,42.567a2.969,2.969,0,0,1-.941,1.589A3.267,3.267,0,0,1,39,45.269h-.036A1.17,1.17,0,0,1,38.1,44.9a1.253,1.253,0,0,1-.378-.891,4.46,4.46,0,0,1,2.573-2.63l.093-.007a1.238,1.238,0,0,1,1.219,1.2" transform="translate(-10.835 -11.883)" fill="#fff"/>
        <path id="Path_15577" data-name="Path 15577" d="M41.606,42.567a2.969,2.969,0,0,1-.941,1.589A3.267,3.267,0,0,1,39,45.269h-.036A1.17,1.17,0,0,1,38.1,44.9a1.253,1.253,0,0,1-.378-.891,4.46,4.46,0,0,1,2.573-2.63l.093-.007a1.238,1.238,0,0,1,1.219,1.2" transform="translate(-10.835 -11.883)" fill="#fff"/>
        <path id="Path_15578" data-name="Path 15578" d="M41.606,42.567a2.969,2.969,0,0,1-.941,1.589A3.267,3.267,0,0,1,39,45.269h-.036A1.17,1.17,0,0,1,38.1,44.9a1.253,1.253,0,0,1-.378-.891,4.46,4.46,0,0,1,2.573-2.63l.093-.007a1.238,1.238,0,0,1,1.219,1.2" transform="translate(-10.835 -11.883)" fill="#fff"/>
        <path id="Path_15579" data-name="Path 15579" d="M41.606,42.567a2.969,2.969,0,0,1-.941,1.589A3.267,3.267,0,0,1,39,45.269h-.036A1.17,1.17,0,0,1,38.1,44.9a1.253,1.253,0,0,1-.378-.891,4.46,4.46,0,0,1,2.573-2.63l.093-.007a1.238,1.238,0,0,1,1.219,1.2" transform="translate(-10.835 -11.883)" fill="#fff"/>
      </g>
    </g>
  </g>
</svg>
