<svg xmlns="http://www.w3.org/2000/svg" xmlns:xlink="http://www.w3.org/1999/xlink" width="53.13" height="53.236" viewBox="0 0 53.13 53.236">
  <defs>
    <clipPath id="clip-path">
      <rect id="Rectangle_8673" data-name="Rectangle 8673" width="53.13" height="53.236" fill="#023fac"/>
    </clipPath>
  </defs>
  <g id="Group_22728" data-name="Group 22728" transform="translate(-385.708 -900.003)">
    <g id="Group_22726" data-name="Group 22726" transform="translate(385.708 900.003)">
      <g id="Group_22725" data-name="Group 22725" clip-path="url(#clip-path)">
        <g id="Group_23427" data-name="Group 23427" transform="translate(-457 -1203.424)">
          <g id="Ellipse_880" data-name="Ellipse 880" transform="translate(482 1203.542)" fill="#fff" stroke="#4ec0d1" stroke-width="3">
            <circle cx="14" cy="14" r="14" stroke="none"/>
            <circle cx="14" cy="14" r="12.5" fill="none"/>
          </g>
          <g id="Icon_feather-user" data-name="Icon feather-user" transform="translate(487.806 1208.505)">
            <path id="Path_16021" data-name="Path 16021" d="M22.644,28.505v-2a4.085,4.085,0,0,0-4.161-4H10.161A4.085,4.085,0,0,0,6,26.5v2" transform="translate(-6 -10.688)" fill="none" stroke="#4ec0d1" stroke-linecap="round" stroke-linejoin="round" stroke-width="3"/>
            <path id="Path_16022" data-name="Path 16022" d="M20.322,8.661A4.161,4.161,0,1,1,16.161,4.5a4.161,4.161,0,0,1,4.161,4.161Z" transform="translate(-7.839 -2.5)" fill="none" stroke="#4ec0d1" stroke-linecap="round" stroke-linejoin="round" stroke-width="3"/>
          </g>
        </g>
        <path id="Path_15560" data-name="Path 15560" d="M29.559,48.161c-1.483-1.511-2.965-2.972-4.5-4.5-.641-.634-1.076-.919-1.411-.919s-.756.278-1.383.891l-2.359,2.359-2.267,2.274q-1.112,1.112-2.231,2.224a3.474,3.474,0,0,1-2.359,1.155,2.343,2.343,0,0,1-1.711-.77c-1.062-1.133-.891-2.566.47-3.942q1.486-1.486,2.979-2.972c1.361-1.361,2.73-2.73,4.084-4.105.934-.948.934-1.411.007-2.366-1.3-1.347-2.794-2.844-4.7-4.7a2.011,2.011,0,0,0-1.254-.727,1.961,1.961,0,0,0-1.226.713l-1.483,1.468c-2.181,2.16-4.654,4.6-6.964,6.992a11.339,11.339,0,0,0-.064,15.845c2.88,3.158,5.788,4.861,9.109,5.367h1.454a13.4,13.4,0,0,0,7.427-3.428q2.277-2.32,4.583-4.6,1.882-1.882,3.756-3.77c.984-.991.984-1.5.036-2.48M12.994,35.31l3.45,3.329-3.507,3.428L9.395,38.7Zm8.2,20.043c-2.381,3.008-4.9,4.469-7.7,4.469a8.934,8.934,0,0,1-1.618-.15,11.515,11.515,0,0,1-8.917-8.09c-1.7-5.025,1.575-8.453,4.184-10.6l.456-.378,3.464,3.564-.5.442c-1.4,1.254-2.78,2.815-2.359,4.925a6.846,6.846,0,0,0,1.682,3.336,4.023,4.023,0,0,0,2.937,1.368c1.483,0,3.179-.862,5.053-2.559l.492-.442,3.15,3.692Zm2.445-2.331-3.421-3.735L23.9,46.173l3.051,3.272Z" transform="translate(0 -9.209)" fill="#023fac"/>
        <path id="Path_15561" data-name="Path 15561" d="M29.559,48.161c-1.483-1.511-2.965-2.972-4.5-4.5-.641-.634-1.076-.919-1.411-.919s-.756.278-1.383.891l-2.359,2.359-2.267,2.274q-1.112,1.112-2.231,2.224a3.474,3.474,0,0,1-2.359,1.155,2.343,2.343,0,0,1-1.711-.77c-1.062-1.133-.891-2.566.47-3.942q1.486-1.486,2.979-2.972c1.361-1.361,2.73-2.73,4.084-4.105.934-.948.934-1.411.007-2.366-1.3-1.347-2.794-2.844-4.7-4.7a2.011,2.011,0,0,0-1.254-.727,1.961,1.961,0,0,0-1.226.713l-1.483,1.468c-2.181,2.16-4.654,4.6-6.964,6.992a11.339,11.339,0,0,0-.064,15.845c2.88,3.158,5.788,4.861,9.109,5.367h1.454a13.4,13.4,0,0,0,7.427-3.428q2.277-2.32,4.583-4.6,1.882-1.882,3.756-3.77c.984-.991.984-1.5.036-2.48M12.994,35.31l3.45,3.329-3.507,3.428L9.395,38.7Zm8.2,20.043c-2.381,3.008-4.9,4.469-7.7,4.469a8.934,8.934,0,0,1-1.618-.15,11.515,11.515,0,0,1-8.917-8.09c-1.7-5.025,1.575-8.453,4.184-10.6l.456-.378,3.464,3.564-.5.442c-1.4,1.254-2.78,2.815-2.359,4.925a6.846,6.846,0,0,0,1.682,3.336,4.023,4.023,0,0,0,2.937,1.368c1.483,0,3.179-.862,5.053-2.559l.492-.442,3.15,3.692Zm2.445-2.331-3.421-3.735L23.9,46.173l3.051,3.272Z" transform="translate(0 -9.209)" fill="#023fac"/>
        <path id="Path_15562" data-name="Path 15562" d="M29.559,48.161c-1.483-1.511-2.965-2.972-4.5-4.5-.641-.634-1.076-.919-1.411-.919s-.756.278-1.383.891l-2.359,2.359-2.267,2.274q-1.112,1.112-2.231,2.224a3.474,3.474,0,0,1-2.359,1.155,2.343,2.343,0,0,1-1.711-.77c-1.062-1.133-.891-2.566.47-3.942q1.486-1.486,2.979-2.972c1.361-1.361,2.73-2.73,4.084-4.105.934-.948.934-1.411.007-2.366-1.3-1.347-2.794-2.844-4.7-4.7a2.011,2.011,0,0,0-1.254-.727,1.961,1.961,0,0,0-1.226.713l-1.483,1.468c-2.181,2.16-4.654,4.6-6.964,6.992a11.339,11.339,0,0,0-.064,15.845c2.88,3.158,5.788,4.861,9.109,5.367h1.454a13.4,13.4,0,0,0,7.427-3.428q2.277-2.32,4.583-4.6,1.882-1.882,3.756-3.77c.984-.991.984-1.5.036-2.48M12.994,35.31l3.45,3.329-3.507,3.428L9.395,38.7Zm8.2,20.043c-2.381,3.008-4.9,4.469-7.7,4.469a8.934,8.934,0,0,1-1.618-.15,11.515,11.515,0,0,1-8.917-8.09c-1.7-5.025,1.575-8.453,4.184-10.6l.456-.378,3.464,3.564-.5.442c-1.4,1.254-2.78,2.815-2.359,4.925a6.846,6.846,0,0,0,1.682,3.336,4.023,4.023,0,0,0,2.937,1.368c1.483,0,3.179-.862,5.053-2.559l.492-.442,3.15,3.692Zm2.445-2.331-3.421-3.735L23.9,46.173l3.051,3.272Z" transform="translate(0 -9.209)" fill="#023fac"/>
        <path id="Path_15563" data-name="Path 15563" d="M29.559,48.161c-1.483-1.511-2.965-2.972-4.5-4.5-.641-.634-1.076-.919-1.411-.919s-.756.278-1.383.891l-2.359,2.359-2.267,2.274q-1.112,1.112-2.231,2.224a3.474,3.474,0,0,1-2.359,1.155,2.343,2.343,0,0,1-1.711-.77c-1.062-1.133-.891-2.566.47-3.942q1.486-1.486,2.979-2.972c1.361-1.361,2.73-2.73,4.084-4.105.934-.948.934-1.411.007-2.366-1.3-1.347-2.794-2.844-4.7-4.7a2.011,2.011,0,0,0-1.254-.727,1.961,1.961,0,0,0-1.226.713l-1.483,1.468c-2.181,2.16-4.654,4.6-6.964,6.992a11.339,11.339,0,0,0-.064,15.845c2.88,3.158,5.788,4.861,9.109,5.367h1.454a13.4,13.4,0,0,0,7.427-3.428q2.277-2.32,4.583-4.6,1.882-1.882,3.756-3.77c.984-.991.984-1.5.036-2.48M12.994,35.31l3.45,3.329-3.507,3.428L9.395,38.7Zm8.2,20.043c-2.381,3.008-4.9,4.469-7.7,4.469a8.934,8.934,0,0,1-1.618-.15,11.515,11.515,0,0,1-8.917-8.09c-1.7-5.025,1.575-8.453,4.184-10.6l.456-.378,3.464,3.564-.5.442c-1.4,1.254-2.78,2.815-2.359,4.925a6.846,6.846,0,0,0,1.682,3.336,4.023,4.023,0,0,0,2.937,1.368c1.483,0,3.179-.862,5.053-2.559l.492-.442,3.15,3.692Zm2.445-2.331-3.421-3.735L23.9,46.173l3.051,3.272Z" transform="translate(0 -9.209)" fill="#023fac"/>
        <path id="Path_15564" data-name="Path 15564" d="M29.33,23.778a.527.527,0,0,1-.036.221,2.614,2.614,0,0,1-.634.848c-.556.592-1.126,1.169-1.689,1.739l-1.6,1.639a3.714,3.714,0,0,1-1.076.891.966.966,0,0,1-.385.086,1.261,1.261,0,0,1-.82-.378,1.359,1.359,0,0,1-.449-.727c-.086-.556.449-1.162.984-1.689l2.794-2.758a4.827,4.827,0,0,1,.884-.734,1.369,1.369,0,0,1,.656-.185,1.145,1.145,0,0,1,.606.178c.47.292.748.606.77.87" transform="translate(-6.5 -6.529)" fill="#151515"/>
        <path id="Path_15565" data-name="Path 15565" d="M29.33,23.778a.527.527,0,0,1-.036.221,2.614,2.614,0,0,1-.634.848c-.556.592-1.126,1.169-1.689,1.739l-1.6,1.639a3.714,3.714,0,0,1-1.076.891.966.966,0,0,1-.385.086,1.261,1.261,0,0,1-.82-.378,1.359,1.359,0,0,1-.449-.727c-.086-.556.449-1.162.984-1.689l2.794-2.758a4.827,4.827,0,0,1,.884-.734,1.369,1.369,0,0,1,.656-.185,1.145,1.145,0,0,1,.606.178c.47.292.748.606.77.87" transform="translate(-6.5 -6.529)" fill="#151515"/>
        <path id="Path_15566" data-name="Path 15566" d="M29.33,23.778a.527.527,0,0,1-.036.221,2.614,2.614,0,0,1-.634.848c-.556.592-1.126,1.169-1.689,1.739l-1.6,1.639a3.714,3.714,0,0,1-1.076.891.966.966,0,0,1-.385.086,1.261,1.261,0,0,1-.82-.378,1.359,1.359,0,0,1-.449-.727c-.086-.556.449-1.162.984-1.689l2.794-2.758a4.827,4.827,0,0,1,.884-.734,1.369,1.369,0,0,1,.656-.185,1.145,1.145,0,0,1,.606.178c.47.292.748.606.77.87" transform="translate(-6.5 -6.529)" fill="#151515"/>
        <path id="Path_15567" data-name="Path 15567" d="M29.33,23.778a.527.527,0,0,1-.036.221,2.614,2.614,0,0,1-.634.848c-.556.592-1.126,1.169-1.689,1.739l-1.6,1.639a3.714,3.714,0,0,1-1.076.891.966.966,0,0,1-.385.086,1.261,1.261,0,0,1-.82-.378,1.359,1.359,0,0,1-.449-.727c-.086-.556.449-1.162.984-1.689l2.794-2.758a4.827,4.827,0,0,1,.884-.734,1.369,1.369,0,0,1,.656-.185,1.145,1.145,0,0,1,.606.178c.47.292.748.606.77.87" transform="translate(-6.5 -6.529)" fill="#023fac"/>
        <path id="Path_15568" data-name="Path 15568" d="M49.307,43.792a1.89,1.89,0,0,1-.392,1.183A8.689,8.689,0,0,1,47.6,46.322c-.2.164-.392.349-.592.535s-.392.385-.584.577A8.6,8.6,0,0,1,44.9,48.767a1.759,1.759,0,0,1-.877.242c-.492,0-.77-.207-.834-.606A3.19,3.19,0,0,1,44,46.151a13.134,13.134,0,0,1,1.219-1.233c.264-.242.52-.492.763-.741.057-.05.121-.114.185-.178l.114-.128c.549-.584,1.169-1.24,1.8-1.24H48.1a.863.863,0,0,1,.135.007,1.4,1.4,0,0,1,1.069,1.155" transform="translate(-12.4 -12.245)" fill="#151515"/>
        <path id="Path_15569" data-name="Path 15569" d="M49.307,43.792a1.89,1.89,0,0,1-.392,1.183A8.689,8.689,0,0,1,47.6,46.322c-.2.164-.392.349-.592.535s-.392.385-.584.577A8.6,8.6,0,0,1,44.9,48.767a1.759,1.759,0,0,1-.877.242c-.492,0-.77-.207-.834-.606A3.19,3.19,0,0,1,44,46.151a13.134,13.134,0,0,1,1.219-1.233c.264-.242.52-.492.763-.741.057-.05.121-.114.185-.178l.114-.128c.549-.584,1.169-1.24,1.8-1.24H48.1a.863.863,0,0,1,.135.007,1.4,1.4,0,0,1,1.069,1.155" transform="translate(-12.4 -12.245)" fill="#151515"/>
        <path id="Path_15570" data-name="Path 15570" d="M49.307,43.792a1.89,1.89,0,0,1-.392,1.183A8.689,8.689,0,0,1,47.6,46.322c-.2.164-.392.349-.592.535s-.392.385-.584.577A8.6,8.6,0,0,1,44.9,48.767a1.759,1.759,0,0,1-.877.242c-.492,0-.77-.207-.834-.606A3.19,3.19,0,0,1,44,46.151a13.134,13.134,0,0,1,1.219-1.233c.264-.242.52-.492.763-.741.057-.05.121-.114.185-.178l.114-.128c.549-.584,1.169-1.24,1.8-1.24H48.1a.863.863,0,0,1,.135.007,1.4,1.4,0,0,1,1.069,1.155" transform="translate(-12.4 -12.245)" fill="#151515"/>
        <path id="Path_15571" data-name="Path 15571" d="M49.307,43.792a1.89,1.89,0,0,1-.392,1.183A8.689,8.689,0,0,1,47.6,46.322c-.2.164-.392.349-.592.535s-.392.385-.584.577A8.6,8.6,0,0,1,44.9,48.767a1.759,1.759,0,0,1-.877.242c-.492,0-.77-.207-.834-.606A3.19,3.19,0,0,1,44,46.151a13.134,13.134,0,0,1,1.219-1.233c.264-.242.52-.492.763-.741.057-.05.121-.114.185-.178l.114-.128c.549-.584,1.169-1.24,1.8-1.24H48.1a.863.863,0,0,1,.135.007,1.4,1.4,0,0,1,1.069,1.155" transform="translate(-12.4 -12.245)" fill="#023fac"/>
        <path id="Path_15572" data-name="Path 15572" d="M31.573,32.616a4.262,4.262,0,0,1-2.659,2.6h-.043a1.169,1.169,0,0,1-1.19-1.262,2.714,2.714,0,0,1,.848-1.44,3.557,3.557,0,0,1,1.81-1.176,1.256,1.256,0,0,1,.9.378,1.229,1.229,0,0,1,.335.9" transform="translate(-7.951 -9.002)" fill="#151515"/>
        <path id="Path_15573" data-name="Path 15573" d="M31.573,32.616a4.262,4.262,0,0,1-2.659,2.6h-.043a1.169,1.169,0,0,1-1.19-1.262,2.714,2.714,0,0,1,.848-1.44,3.557,3.557,0,0,1,1.81-1.176,1.256,1.256,0,0,1,.9.378,1.229,1.229,0,0,1,.335.9" transform="translate(-7.951 -9.002)" fill="#151515"/>
        <path id="Path_15574" data-name="Path 15574" d="M31.573,32.616a4.262,4.262,0,0,1-2.659,2.6h-.043a1.169,1.169,0,0,1-1.19-1.262,2.714,2.714,0,0,1,.848-1.44,3.557,3.557,0,0,1,1.81-1.176,1.256,1.256,0,0,1,.9.378,1.229,1.229,0,0,1,.335.9" transform="translate(-7.951 -9.002)" fill="#151515"/>
        <path id="Path_15575" data-name="Path 15575" d="M31.573,32.616a4.262,4.262,0,0,1-2.659,2.6h-.043a1.169,1.169,0,0,1-1.19-1.262,2.714,2.714,0,0,1,.848-1.44,3.557,3.557,0,0,1,1.81-1.176,1.256,1.256,0,0,1,.9.378,1.229,1.229,0,0,1,.335.9" transform="translate(-7.951 -9.002)" fill="#023fac"/>
        <path id="Path_15576" data-name="Path 15576" d="M41.606,42.567a2.969,2.969,0,0,1-.941,1.589A3.267,3.267,0,0,1,39,45.269h-.036A1.17,1.17,0,0,1,38.1,44.9a1.253,1.253,0,0,1-.378-.891,4.46,4.46,0,0,1,2.573-2.63l.093-.007a1.238,1.238,0,0,1,1.219,1.2" transform="translate(-10.835 -11.883)" fill="#151515"/>
        <path id="Path_15577" data-name="Path 15577" d="M41.606,42.567a2.969,2.969,0,0,1-.941,1.589A3.267,3.267,0,0,1,39,45.269h-.036A1.17,1.17,0,0,1,38.1,44.9a1.253,1.253,0,0,1-.378-.891,4.46,4.46,0,0,1,2.573-2.63l.093-.007a1.238,1.238,0,0,1,1.219,1.2" transform="translate(-10.835 -11.883)" fill="#151515"/>
        <path id="Path_15578" data-name="Path 15578" d="M41.606,42.567a2.969,2.969,0,0,1-.941,1.589A3.267,3.267,0,0,1,39,45.269h-.036A1.17,1.17,0,0,1,38.1,44.9a1.253,1.253,0,0,1-.378-.891,4.46,4.46,0,0,1,2.573-2.63l.093-.007a1.238,1.238,0,0,1,1.219,1.2" transform="translate(-10.835 -11.883)" fill="#151515"/>
        <path id="Path_15579" data-name="Path 15579" d="M41.606,42.567a2.969,2.969,0,0,1-.941,1.589A3.267,3.267,0,0,1,39,45.269h-.036A1.17,1.17,0,0,1,38.1,44.9a1.253,1.253,0,0,1-.378-.891,4.46,4.46,0,0,1,2.573-2.63l.093-.007a1.238,1.238,0,0,1,1.219,1.2" transform="translate(-10.835 -11.883)" fill="#023fac"/>
      </g>
    </g>
  </g>
</svg>
