<?xml version="1.0" encoding="UTF-8"?>
<svg id="Layer_2" data-name="Layer 2" xmlns="http://www.w3.org/2000/svg" viewBox="0 0 685.14 113.18">
  <defs>
    <style>
      .cls-1 {
        fill: #2590ec;
      }

      .cls-1, .cls-2, .cls-3 {
        stroke-width: 0px;
      }

      .cls-2 {
        fill: #595959;
      }

      .cls-3 {
        fill: #fff;
      }
    </style>
  </defs>
  <g>
    <path class="cls-2" d="M26.37,33.55H0v-14.98h73.34v14.98h-26.37v74.62h-20.61V33.55Z"/>
    <path class="cls-2" d="M79.1,18.57h32.9c20.56,0,30.85,8.45,30.85,25.34,0,5.8-1.17,10.8-3.52,14.98-2.35,4.18-5.74,7.3-10.18,9.34v.26c1.54,1.11,2.73,2.18,3.58,3.2.85,1.02,1.54,2.13,2.05,3.33l13.06,33.15h-21.76l-9.98-26.75c-.94-2.39-2.16-3.97-3.65-4.74-1.49-.77-4.16-1.15-8-1.15h-4.74v32.64h-20.61V18.57ZM109.7,59.27c4.18,0,7.4-1.09,9.66-3.26,2.26-2.18,3.39-5.31,3.39-9.41,0-7.76-4.44-11.65-13.31-11.65h-9.73v24.32h9.98Z"/>
    <path class="cls-2" d="M174.72,72.33l-29.31-53.76h22.27l17.28,35.33,17.28-35.33h22.27l-29.18,53.76v35.84h-20.61v-35.84Z"/>
    <path class="cls-2" d="M250.24,33.55h-26.37v-14.98h73.34v14.98h-26.37v74.62h-20.61V33.55Z"/>
    <path class="cls-2" d="M302.97,18.57h20.61v35.71h31.62V18.57h20.61v89.6h-20.61v-37.5h-31.62v37.5h-20.61V18.57Z"/>
    <path class="cls-2" d="M436.48,94.86h-29.44l-3.97,13.31h-21.5l31.23-89.6h17.92l31.23,89.6h-21.5l-3.97-13.31ZM431.49,78.47l-9.73-32.26-9.73,32.26h19.46Z"/>
    <path class="cls-2" d="M480,33.55h-26.37v-14.98h73.34v14.98h-26.37v74.62h-20.61V33.55Z"/>
  </g>
  <rect class="cls-1" x="558.32" width="126.81" height="113.18" rx="19.81" ry="19.81"/>
  <g>
    <path class="cls-3" d="M587.77,100.66c-1.56-1.56-2.34-3.54-2.34-5.94s.78-4.46,2.34-5.99c1.56-1.53,3.54-2.29,5.94-2.29s4.45.76,5.98,2.29,2.29,3.53,2.29,5.99-.76,4.38-2.29,5.94-3.53,2.34-5.98,2.34-4.38-.78-5.94-2.34Z"/>
    <path class="cls-3" d="M614.32,101.2c-2.34-1.26-4.17-2.98-5.49-5.17-1.32-2.19-1.98-4.66-1.98-7.42,0-4.62,1.86-8.16,5.58-10.62,3.72-2.46,9.06-3.69,16.02-3.69h6.3v-1.8c0-2.04-.66-3.63-1.98-4.77-1.32-1.14-3.12-1.71-5.4-1.71-2.7,0-5.3.45-7.79,1.35-2.49.9-4.54,2.13-6.17,3.69l-5.49-7.29c2.58-2.28,5.62-4.1,9.14-5.45,3.51-1.35,7.06-2.03,10.67-2.03,6.12,0,10.95,1.43,14.49,4.28,3.54,2.85,5.31,6.74,5.31,11.66v20.25c0,1.44.12,3.15.36,5.13.24,1.98.51,3.51.81,4.59h-11.43c-.36-.84-.63-1.59-.81-2.25-.18-.66-.33-1.59-.45-2.79h-.18c-3.36,3.96-7.89,5.94-13.59,5.94-2.94,0-5.58-.63-7.92-1.89ZM632.19,91.61c1.71-1.35,2.56-3.07,2.56-5.17v-3.78h-6.66c-2.82,0-4.98.51-6.48,1.53-1.5,1.02-2.25,2.49-2.25,4.41,0,1.62.54,2.87,1.62,3.73,1.08.87,2.64,1.31,4.68,1.31,2.64,0,4.82-.67,6.53-2.03Z"/>
    <path class="cls-3" d="M656.4,50.89c-1.47-1.32-2.2-3.09-2.2-5.31s.73-3.99,2.2-5.31c1.47-1.32,3.41-1.98,5.81-1.98s4.33.66,5.8,1.98c1.47,1.32,2.21,3.09,2.21,5.31s-.74,3.99-2.21,5.31c-1.47,1.32-3.41,1.98-5.8,1.98s-4.34-.66-5.81-1.98ZM655.81,57.19h12.78v45h-12.78v-45Z"/>
  </g>
</svg>