<svg id="Layer_1" data-name="Layer 1" xmlns="http://www.w3.org/2000/svg" viewBox="0 0 658.67 119.72"><defs><style>.cls-1{fill:#565656;}.cls-2{fill:#2157a6;}.cls-3{fill:#fff;}</style></defs><path class="cls-1" d="M21.07,21.27H0V3.74H62.07V21.27h-21V92h-20Z"/><path class="cls-1" d="M92.84,92H72.51V37.12H92.84v8.5h-.33a13.18,13.18,0,0,1,2.6-3.92,19.37,19.37,0,0,1,5.82-4.28,20.09,20.09,0,0,1,9.17-1.9,20.36,20.36,0,0,1,7,1.17,19.69,19.69,0,0,1,4.68,2.24l-7.89,16.52a11,11,0,0,0-3.31-2.38,12.79,12.79,0,0,0-5.92-1.23A10.56,10.56,0,0,0,98,53.91a12.35,12.35,0,0,0-3.88,5,14.25,14.25,0,0,0-1.24,5.55Z"/><path class="cls-1" d="M156.32,74.44l14.85-37.32H191.1l-37.73,82.74H133L145.75,92,122.81,37.12h20.26Z"/><path class="cls-1" d="M215.18,21.27H194.11V3.74h62.07V21.27h-21V92h-20Z"/><path class="cls-1" d="M306.61,35.52a28.39,28.39,0,0,1,11.24,2.34,20.94,20.94,0,0,1,9,7.39q3.54,5.05,3.54,13.27V92H310.09V61.87c0-3.92-.88-6.88-2.64-8.86a9.12,9.12,0,0,0-7.19-3,11.4,11.4,0,0,0-5.76,1.57A12.21,12.21,0,0,0,290.06,56a12.39,12.39,0,0,0-1.71,6.52V92H268V0h20.4V45.21a10.57,10.57,0,0,1,3.31-4.44A21.43,21.43,0,0,1,298.15,37,23.45,23.45,0,0,1,306.61,35.52Z"/><path class="cls-1" d="M386.4,92V83.14a16.6,16.6,0,0,1-3,3.88,24,24,0,0,1-6.45,4.58,20.43,20.43,0,0,1-9.37,2,25.15,25.15,0,0,1-14-3.91,26.66,26.66,0,0,1-9.37-10.5,31.83,31.83,0,0,1-3.34-14.62A31.79,31.79,0,0,1,344.13,50a26.91,26.91,0,0,1,9.37-10.54,25,25,0,0,1,14-3.94,23.07,23.07,0,0,1,9,1.63A21.58,21.58,0,0,1,382.86,41a15.24,15.24,0,0,1,3.34,4.12v-8h20.2V92ZM360.72,64.61a13,13,0,0,0,1.74,6.72A12.5,12.5,0,0,0,367.11,76a12.66,12.66,0,0,0,6.45,1.67A12.4,12.4,0,0,0,380.05,76a12,12,0,0,0,4.45-4.65,14.59,14.59,0,0,0,0-13.44,12.06,12.06,0,0,0-10.94-6.39,12.5,12.5,0,0,0-6.45,1.71,12.81,12.81,0,0,0-4.65,4.68A13,13,0,0,0,360.72,64.61Z"/><path class="cls-1" d="M416,37.12h9.36V14.58h20.14V37.12h12.3V53.84h-12.3V69.16a12.94,12.94,0,0,0,1,5.52,3.71,3.71,0,0,0,3.68,2.11,5.58,5.58,0,0,0,3.07-.81,11.27,11.27,0,0,0,1.54-1.07l7,14.45a15.79,15.79,0,0,1-2.91,1.47,36.27,36.27,0,0,1-6.19,1.94,37,37,0,0,1-8.36.87q-8.22,0-13.58-4.65t-5.35-14.35V53.84H416Z"/><rect class="cls-2" x="484.33" y="0.2" width="174.79" height="119.44" rx="13.63"/><path class="cls-3" d="M513.4,102.33a12.22,12.22,0,0,1-12.1-12.11,11.77,11.77,0,0,1,3.58-8.66,12.06,12.06,0,0,1,17.15,0,11.82,11.82,0,0,1,3.55,8.66,12.17,12.17,0,0,1-12.18,12.11Z"/><path class="cls-3" d="M584.3,100.72V91.83a16.4,16.4,0,0,1-3,3.87,23.81,23.81,0,0,1-6.45,4.59,20.43,20.43,0,0,1-9.37,2,25.16,25.16,0,0,1-14-3.92A26.53,26.53,0,0,1,542,87.91a31.79,31.79,0,0,1-3.34-14.61A31.86,31.86,0,0,1,542,58.68a26.88,26.88,0,0,1,9.37-10.53,25,25,0,0,1,14-3.95,23.06,23.06,0,0,1,9,1.64,21.37,21.37,0,0,1,6.29,3.88,15.22,15.22,0,0,1,3.34,4.11v-8h20.2v54.91ZM558.62,73.3A13,13,0,0,0,560.36,80,12.57,12.57,0,0,0,565,84.67a12.76,12.76,0,0,0,6.45,1.67A12.49,12.49,0,0,0,578,84.67,12.14,12.14,0,0,0,582.4,80a14.59,14.59,0,0,0,0-13.44,12,12,0,0,0-10.94-6.39,12.58,12.58,0,0,0-6.45,1.7,12.83,12.83,0,0,0-4.65,4.69A13,13,0,0,0,558.62,73.3Z"/><path class="cls-3" d="M629.65,34.5a11,11,0,0,1-8.16-3.37,11.07,11.07,0,0,1-3.34-8.06,11.25,11.25,0,0,1,3.38-8.13,11.28,11.28,0,0,1,13.88-1.87,12.38,12.38,0,0,1,4.21,4.18,10.89,10.89,0,0,1,1.6,5.82,10.94,10.94,0,0,1-3.41,8.06A11.18,11.18,0,0,1,629.65,34.5Zm-10.43,66.22V45.81h20.33v54.91Z"/></svg>